<svg width="251" height="286" xmlns="http://www.w3.org/2000/svg" xml:space="preserve" version="1.1">

 <g>
  <title>Layer 1</title>
  <path id="svg_1" fill="#1C294F" d="m250.92241,99.95927c-1.316,36.778 -0.999,73.571 -1.054,110.36c-0.006,3.735 -1.151,5.999 -4.583,7.925c-39.313,22.068 -78.536,44.298 -117.738,66.564c-2.093,1.189 -3.626,1.578 -5.881,0.241c-39.196,-23.246 -78.425,-46.439 -117.733,-69.496c-3.039,-1.783 -4.071,-3.742 -3.919,-7.128c1.503,-33.44 0.456,-66.916 1.267,-100.359c0.282,-11.635 0.549,-23.275 0.585,-34.912c0.01,-3.276 1.588,-4.781 4.026,-6.153c23.922,-13.463 47.841,-26.932 71.741,-40.435c14.339,-8.102 28.725,-16.126 42.914,-24.484c4.638,-2.733 8.165,-2.846 13.034,0.079c37.495,22.526 75.183,44.73 112.902,66.882c3.332,1.957 4.65,4.113 4.517,7.935c-0.265,7.651 -0.078,15.32 -0.078,22.981z"/>
  <path id="svg_2" fill="#FFFFFF" d="m119.92241,218.38227c-10.327,0.59 -20.666,0.669 -30.814,-1.612c-12.726,-2.861 -20.813,-10.844 -22.673,-22.239c-1.004,-6.154 0.661,-11.982 3.221,-17.398c9.357,-19.795 19.093,-39.411 28.423,-59.219c3.495,-7.42 8.449,-14.33 8.629,-23.072c0.121,-5.861 -0.162,-11.652 -1.639,-17.323c-1.74,-6.678 -5.437,-11.143 -12.924,-11.85c-5.091,-0.481 -7.868,-4.406 -7.1,-8.991c0.701,-4.188 3.934,-6.158 9.042,-5.509c12.629,1.604 21.441,9.115 24.713,22.08c4.289,16.992 3.641,33.615 -5.414,49.236c-11.503,19.846 -20.524,40.924 -30.441,61.556c-4.951,10.301 -0.73,17.429 10.759,18.964c8.801,1.176 17.615,0.312 26.405,0.179c12.633,-0.191 25.284,1.617 37.892,-0.227c13.166,-1.926 17.793,-10.741 11.847,-22.553c-11.193,-22.235 -22.626,-44.351 -33.584,-66.701c-7.692,-15.687 -7.647,-31.804 -0.429,-47.697c4.228,-9.311 12.09,-13.828 22.029,-14.927c4.871,-0.539 7.702,1.484 8.409,5.702c0.742,4.425 -1.862,8.474 -6.64,8.818c-7.572,0.545 -12.267,5.392 -13.714,14.585c-1.666,10.582 -0.467,20.492 4.795,30.285c10.755,20.016 20.673,40.482 30.947,60.757c3.815,7.529 6.72,15.314 5.057,23.92c-2.206,11.414 -9.88,17.541 -20.586,20.68c-9.93,2.911 -20.156,1.848 -30.249,2.495c-5.3,0.341 -10.639,0.061 -15.961,0.061z"/>
 </g>
</svg>